<svg width="301" height="301" viewBox="0 0 301 301" fill="none" xmlns="http://www.w3.org/2000/svg">
<rect x="0.361206" y="0.22699" width="300" height="300" rx="30" fill="#0B1015"/>
<path fill-rule="evenodd" clip-rule="evenodd" d="M72.5752 74.9017V91.2479L92.6045 111.277V102.647L125.164 143.836L163.037 181.71L170.189 172.515L72.5752 74.9017ZM72.5752 132.947V116.601L92.6045 136.63V152.976L72.5752 132.947ZM72.5752 158.299V174.646L92.6045 194.675V178.329L72.5752 158.299ZM72.5752 216.344V199.998L92.6045 220.028V236.374L72.5752 216.344ZM72.5752 241.697V248.994H79.8725L72.5752 241.697ZM244.56 248.994H230.322L224.531 243.204V226.857L244.56 246.887V248.994ZM244.56 221.534L224.531 201.505V185.159L244.56 205.188V221.534ZM181.281 158.254L167.614 144.587L174.576 135.204L188.432 149.06L181.281 158.254ZM97.5959 74.5697L95.8092 72.2025H95.2287L97.5959 74.5697ZM224.531 159.806L244.56 179.835V163.489L224.531 143.46V159.806ZM185.376 120.651L199.524 134.799L206.675 125.604L192.339 111.267L185.376 120.651ZM224.531 118.107V102.647L217.767 111.343L203.138 96.7139L210.101 87.3305L244.56 121.79V138.136L224.531 118.107ZM244.56 72.2025V96.4374L220.9 72.777L221.326 72.2025H244.56Z" fill="#4CEB2C"/>
<path d="M66.3688 240.623V63.831H89.6028L152.895 147.687L215.12 63.831H238.354V240.623H218.324V94.2755L152.895 178.399L86.3981 94.2755V240.623H66.3688Z" fill="#0B1015"/>
<path d="M58.4109 231.863V55.071H81.6449L144.937 138.927L207.162 55.071H230.396V231.863H210.367V85.5156L144.937 169.639L78.4402 85.5156V231.863H58.4109Z" fill="#4CEB2C"/>
</svg>
