<?xml version="1.0" standalone="no"?>
<!DOCTYPE svg PUBLIC "-//W3C//DTD SVG 20010904//EN"
 "http://www.w3.org/TR/2001/REC-SVG-20010904/DTD/svg10.dtd">
<svg version="1.0" xmlns="http://www.w3.org/2000/svg"
 width="700.000000pt" height="700.000000pt" viewBox="0 0 700.000000 700.000000"
 preserveAspectRatio="xMidYMid meet">
<metadata>
Created by potrace 1.11, written by Peter Selinger 2001-2013
</metadata>
<g transform="translate(0.000000,700.000000) scale(0.100000,-0.100000)"
fill="#000000" stroke="none">
<path d="M635 6990 c-268 -27 -500 -212 -591 -471 l-29 -84 -3 -2898 c-3
-3240 -9 -2969 72 -3132 72 -146 183 -253 340 -326 135 -63 -77 -59 3103 -57
l2898 3 77 27 c233 83 406 269 465 503 17 66 18 220 18 2955 l0 2885 -23 78
c-73 252 -249 429 -499 500 l-78 22 -2835 1 c-1559 1 -2871 -2 -2915 -6z
m1996 -2244 c404 -536 736 -975 739 -975 3 0 329 437 726 972 l720 972 272 3
272 2 0 -2055 0 -2055 -235 0 -235 0 -2 1697 -3 1697 -755 -971 c-415 -533
-758 -968 -762 -966 -4 2 -269 335 -590 740 -320 405 -592 748 -604 762 l-23
26 -1 -90 0 -89 -70 69 -70 69 0 112 0 112 -92 117 -93 118 -3 -1702 -2 -1701
-230 0 -230 0 0 2055 0 2055 268 0 269 0 734 -974z m3059 299 c0 -151 -3 -275
-7 -275 -4 0 -36 28 -70 62 l-63 62 0 213 0 213 70 0 70 0 0 -275z m0 -1062
c0 -101 -3 -183 -7 -183 -4 0 -36 28 -70 62 l-63 62 0 190 0 190 70 -69 70
-69 0 -183z m-966 178 c55 -55 76 -83 70 -92 -4 -8 -39 -54 -78 -104 -38 -49
-71 -92 -73 -94 -8 -10 -163 155 -158 167 6 17 148 201 155 202 3 0 41 -36 84
-79z m-2574 -525 l0 -190 -70 69 -70 69 0 190 0 190 70 -69 70 -69 0 -190z
m2222 -111 c-4 -6 -41 -55 -82 -108 l-75 -97 -82 82 -82 82 27 36 c15 20 52
68 82 107 l55 72 82 -81 c48 -48 79 -86 75 -93z m1318 -512 c0 -101 -3 -183
-7 -183 -4 0 -36 28 -70 62 l-63 62 0 190 0 190 70 -69 70 -69 0 -183z m-1740
-25 c0 -9 -149 -202 -159 -206 -3 -1 -42 34 -85 77 l-79 80 28 38 c16 21 53
69 83 107 l54 68 79 -78 c44 -43 79 -82 79 -86z m-1800 -322 l0 -190 -70 69
-70 69 0 190 0 190 70 -69 70 -69 0 -190z m3540 -623 c0 -101 -3 -183 -7 -183
-4 0 -36 28 -70 62 l-63 62 0 190 0 190 70 -69 70 -69 0 -183z m-3540 -347 l0
-190 -70 69 -70 69 0 190 0 190 70 -69 70 -69 0 -190z m3467 -368 c48 -48 73
-80 73 -95 l0 -23 -167 0 -167 0 -68 67 c-52 51 -68 74 -68 95 l0 28 162 0
163 0 72 -72z m-3842 -38 l80 -80 -83 0 -82 0 0 80 c0 44 1 80 3 80 1 0 38
-36 82 -80z"/>
</g>
</svg>
